<?xml version="1.0" encoding="UTF-8"?>
<svg id="Layer_2" data-name="Layer 2" xmlns="http://www.w3.org/2000/svg" viewBox="0 0 117.68 40.11">
  <defs>
    <style>
      .cls-1 {
        fill: #1a1a1a;
      }

      .cls-1, .cls-2, .cls-3, .cls-4 {
        stroke-width: 0px;
      }

      .cls-2 {
        fill: #000;
      }

      .cls-3 {
        fill: #f2f2f2;
      }

      .cls-4 {
        fill: #22c55e;
      }
    </style>
  </defs>
  <g id="Layer_1-2" data-name="Layer 1">
    <g>
      <rect class="cls-4" x="1.19" y="1.05" width="38.11" height="38.11" rx="4.3" ry="4.3"/>
      <path class="cls-1" d="M34.81,40.11H5.3c-2.92,0-5.3-2.38-5.3-5.3V5.3C0,2.38,2.38,0,5.3,0h29.51c2.92,0,5.3,2.38,5.3,5.3v29.51c0,2.92-2.38,5.3-5.3,5.3ZM5.3,2c-1.82,0-3.3,1.48-3.3,3.3v29.51c0,1.82,1.48,3.3,3.3,3.3h29.51c1.82,0,3.3-1.48,3.3-3.3V5.3c0-1.82-1.48-3.3-3.3-3.3H5.3Z"/>
      <path class="cls-2" d="M17.43,14.44c.26-.12.64-.25,1.13-.38.49-.13.99-.2,1.49-.2.89,0,1.62.13,2.21.4.59.26.95.66,1.1,1.19.41,1.42.78,2.71,1.12,3.89s.67,2.31.99,3.4c.32,1.09.64,2.24.95,3.44h.14c.34-1.99.64-3.9.9-5.72.26-1.82.52-3.62.76-5.4.24-1.78.47-3.6.68-5.47.79-.43,1.61-.65,2.45-.65.79,0,1.46.17,2.02.5.55.34.83.9.83,1.69,0,.53-.05,1.27-.16,2.21-.11.95-.26,2.03-.45,3.26-.19,1.22-.41,2.5-.67,3.82s-.52,2.61-.81,3.87c-.29,1.26-.58,2.4-.86,3.42-.29,1.02-.56,1.84-.83,2.47-.31.26-.82.5-1.51.7-.7.2-1.43.31-2.2.31-.96,0-1.79-.14-2.48-.41-.7-.28-1.12-.65-1.26-1.13-.24-.7-.51-1.51-.81-2.45-.3-.94-.61-1.96-.92-3.08s-.62-2.26-.94-3.44c-.26,1.15-.55,2.32-.86,3.51-.31,1.19-.61,2.3-.9,3.33-.29,1.03-.55,1.92-.79,2.66-.31.26-.79.5-1.42.7-.64.2-1.34.31-2.11.31-.91,0-1.75-.14-2.52-.43s-1.26-.66-1.48-1.12c-.24-.55-.52-1.39-.85-2.5-.32-1.12-.66-2.4-1.01-3.85-.35-1.45-.68-2.97-.99-4.55-.31-1.58-.6-3.13-.86-4.63-.26-1.5-.47-2.85-.61-4.05.31-.26.73-.52,1.24-.76.52-.24,1.09-.36,1.71-.36.79,0,1.44.17,1.94.52s.83.94.97,1.78c.38,2.21.7,4.1.95,5.69s.47,2.94.65,4.07c.18,1.13.34,2.11.49,2.93.14.83.29,1.58.43,2.25h.18c.24-.98.47-1.9.68-2.75s.44-1.72.68-2.59c.24-.88.49-1.82.76-2.84.26-1.02.54-2.2.83-3.55Z"/>
    </g>
    <g>
      <path class="cls-3" d="M47.86,23.65h-4.88v-8.71c.2-.07.5-.13.89-.2.4-.07.83-.1,1.29-.1.95,0,1.63.16,2.06.48.43.32.64.93.64,1.83v6.7ZM42.97,24.54v-2.38h4.88v2.34c0,1.01.26,1.74.78,2.18.52.44,1.25.66,2.19.66.59,0,1.09-.05,1.49-.17.4-.11.69-.22.89-.33v-4.69h4.92v5.28c0,.53-.1.98-.31,1.35s-.54.7-1.01.99c-.7.44-1.57.79-2.59,1.04-1.02.25-2.16.38-3.42.38-1.56,0-2.93-.23-4.11-.69-1.18-.46-2.09-1.18-2.74-2.16-.65-.98-.97-2.25-.97-3.81ZM58.12,23.65h-4.92v-8.71c.22-.07.53-.13.92-.2.4-.07.82-.1,1.29-.1.95,0,1.63.16,2.06.48.43.32.64.93.64,1.83v6.7Z"/>
      <path class="cls-3" d="M66.8,19.13v4.12h-4.88v-4.72c0-.62.15-1.14.45-1.57.3-.43.71-.81,1.24-1.14.73-.44,1.6-.79,2.62-1.04,1.02-.25,2.1-.38,3.22-.38,2.24,0,3.37.75,3.37,2.24,0,.35-.05.68-.15.99-.1.31-.21.57-.35.79-.22-.04-.49-.08-.81-.12-.32-.03-.67-.05-1.04-.05-.66,0-1.32.08-1.98.23-.66.15-1.22.36-1.68.63ZM61.91,22l4.88.1v8.58c-.22.07-.53.13-.92.18-.4.05-.83.08-1.29.08-.92,0-1.6-.17-2.03-.5s-.64-.92-.64-1.78v-6.67Z"/>
      <path class="cls-3" d="M84.95,26.78v-9.93h4.88v10.56c0,.53-.11.97-.33,1.34-.22.36-.57.69-1.06.97-.59.4-1.37.74-2.33,1.04s-2.06.45-3.32.45c-1.83,0-3.41-.31-4.74-.92-1.33-.62-2.35-1.55-3.07-2.79-.71-1.24-1.07-2.79-1.07-4.64s.37-3.53,1.11-4.77c.74-1.24,1.73-2.17,2.99-2.79,1.25-.62,2.64-.92,4.16-.92.79,0,1.5.09,2.11.26.62.18,1.12.39,1.52.63v4.03c-.31-.26-.71-.51-1.22-.73-.51-.22-1.09-.33-1.75-.33-.77,0-1.45.17-2.05.5-.59.33-1.06.84-1.39,1.52s-.5,1.55-.5,2.61c0,1.54.35,2.67,1.04,3.4.69.73,1.63,1.09,2.82,1.09.48,0,.91-.06,1.29-.18.37-.12.67-.25.89-.38ZM89.83,17.81l-4.88.03v-8.61c.2-.07.5-.13.89-.2.4-.07.82-.1,1.29-.1.97,0,1.66.17,2.08.5s.63.94.63,1.82v6.57Z"/>
      <path class="cls-3" d="M98.81,24.64l-4.92-.1v-15.31c.22-.07.53-.13.92-.2.4-.07.83-.1,1.29-.1.95,0,1.63.17,2.06.5s.64.94.64,1.82v13.4ZM93.89,22l4.92.1v8.58c-.22.07-.53.13-.92.18-.4.05-.83.08-1.29.08-.92,0-1.61-.17-2.05-.5-.44-.33-.66-.92-.66-1.78v-6.67Z"/>
      <path class="cls-3" d="M105.08,25.1l-.2-3.3,8.18-1.29c-.04-.62-.31-1.19-.79-1.72s-1.2-.79-2.14-.79-1.82.34-2.48,1.01c-.66.67-1.01,1.62-1.06,2.85l.17,2.28c.2,1.21.71,2.07,1.55,2.59.84.52,1.83.78,2.97.78.92,0,1.79-.13,2.61-.4.81-.26,1.47-.54,1.98-.83.33.2.6.47.81.83s.31.73.31,1.12c0,.66-.26,1.21-.78,1.65-.52.44-1.23.77-2.14.99-.91.22-1.95.33-3.12.33-1.69,0-3.22-.32-4.57-.96-1.35-.64-2.41-1.59-3.18-2.87-.77-1.28-1.15-2.87-1.15-4.79,0-1.41.22-2.63.68-3.66.45-1.03,1.06-1.89,1.82-2.56.76-.67,1.62-1.17,2.57-1.5s1.95-.5,2.99-.5c1.52,0,2.84.3,3.98.91,1.13.61,2.02,1.42,2.66,2.46.64,1.03.96,2.23.96,3.6,0,.68-.19,1.2-.56,1.55-.38.35-.89.57-1.55.66l-10.49,1.55Z"/>
    </g>
    <rect class="cls-3" x="42.75" y="32.53" width="73.29" height="2.63"/>
  </g>
</svg>