<?xml version="1.0" encoding="UTF-8"?>
<svg id="Layer_2" data-name="Layer 2" xmlns="http://www.w3.org/2000/svg" viewBox="0 0 40.11 40.11">
  <defs>
    <style>
      .cls-1 {
        fill: #1a1a1a;
      }

      .cls-1, .cls-2, .cls-3 {
        stroke-width: 0px;
      }

      .cls-2 {
        fill: #000;
      }

      .cls-3 {
        fill: #22c55e;
      }
    </style>
  </defs>
  <g id="Layer_1-2" data-name="Layer 1">
    <g>
      <rect class="cls-3" x="1" y="1" width="38.11" height="38.11" rx="4.3" ry="4.3"/>
      <path class="cls-1" d="M34.81,40.11H5.3c-2.92,0-5.3-2.38-5.3-5.3V5.3C0,2.38,2.38,0,5.3,0h29.51c2.92,0,5.3,2.38,5.3,5.3v29.51c0,2.92-2.38,5.3-5.3,5.3ZM5.3,2c-1.82,0-3.3,1.48-3.3,3.3v29.51c0,1.82,1.48,3.3,3.3,3.3h29.51c1.82,0,3.3-1.48,3.3-3.3V5.3c0-1.82-1.48-3.3-3.3-3.3H5.3Z"/>
    </g>
    <path class="cls-2" d="M11.66,31.87L6.21,9.62h4.32l2.11,10.1c.56,2.71,1.09,5.54,1.45,7.76h.07c.36-2.34.99-4.98,1.62-7.79l2.41-10.07h4.26l2.21,10.23c.56,2.64,1.02,5.12,1.35,7.53h.07c.4-2.44.92-4.98,1.52-7.69l2.31-10.07h4.13l-5.97,22.25h-4.36l-2.31-10.46c-.56-2.54-.96-4.65-1.22-7.06h-.07c-.4,2.38-.82,4.52-1.48,7.06l-2.58,10.46h-4.39Z"/>
  </g>
</svg>