<?xml version="1.0" encoding="UTF-8"?>
<svg id="Layer_2" data-name="Layer 2" xmlns="http://www.w3.org/2000/svg" viewBox="0 0 115.85 40.11">
  <defs>
    <style>
      .cls-1 {
        fill: #1a1a1a;
      }

      .cls-1, .cls-2, .cls-3, .cls-4 {
        stroke-width: 0px;
      }

      .cls-2 {
        fill: #000;
      }

      .cls-3 {
        fill: #f2f2f2;
      }

      .cls-4 {
        fill: #22c55e;
      }
    </style>
  </defs>
  <g id="Layer_1-2" data-name="Layer 1">
    <g>
      <g>
        <path class="cls-3" d="M45.75,13.75v10.22c0,3.43,1.43,5.02,3.59,5.02,2.31,0,3.69-1.59,3.69-5.02v-10.22h3.2v10.01c0,5.41-2.78,7.8-6.99,7.8s-6.68-2.26-6.68-7.77v-10.04h3.2Z"/>
        <path class="cls-3" d="M59.9,13.98c1.2-.21,2.99-.36,4.84-.36,2.52,0,4.24.42,5.41,1.4.96.81,1.51,2.03,1.51,3.51,0,2.26-1.53,3.8-3.17,4.39v.08c1.25.47,2,1.69,2.44,3.38.55,2.18,1.01,4.21,1.38,4.89h-3.3c-.26-.52-.68-1.95-1.17-4.13-.49-2.29-1.33-3.02-3.15-3.07h-1.61v7.2h-3.17V13.98ZM63.07,21.73h1.9c2.16,0,3.51-1.14,3.51-2.89,0-1.92-1.35-2.81-3.43-2.81-1.01,0-1.66.08-1.98.16v5.54Z"/>
        <path class="cls-3" d="M74.69,13.98c1.4-.23,3.2-.36,5.1-.36,3.28,0,5.54.68,7.15,2.03,1.69,1.38,2.73,3.46,2.73,6.45s-1.07,5.46-2.73,6.97c-1.74,1.59-4.52,2.39-7.93,2.39-1.87,0-3.28-.1-4.32-.23V13.98ZM77.89,28.83c.44.08,1.12.08,1.77.08,4.16.03,6.63-2.26,6.63-6.71.03-3.87-2.21-6.08-6.21-6.08-1.01,0-1.74.08-2.18.18v12.53Z"/>
        <path class="cls-3" d="M92.45,13.75h3.2v14.85h7.2v2.68h-10.4V13.75Z"/>
        <path class="cls-3" d="M115.07,23.5h-6.6v5.15h7.38v2.63h-10.58V13.75h10.19v2.63h-6.99v4.52h6.6v2.6Z"/>
      </g>
      <g>
        <rect class="cls-4" x="1" y="1" width="38.11" height="38.11" rx="4.3" ry="4.3"/>
        <path class="cls-1" d="M34.81,40.11H5.3c-2.92,0-5.3-2.38-5.3-5.3V5.3C0,2.38,2.38,0,5.3,0h29.51c2.92,0,5.3,2.38,5.3,5.3v29.51c0,2.92-2.38,5.3-5.3,5.3ZM5.3,2c-1.82,0-3.3,1.48-3.3,3.3v29.51c0,1.82,1.48,3.3,3.3,3.3h29.51c1.82,0,3.3-1.48,3.3-3.3V5.3c0-1.82-1.48-3.3-3.3-3.3H5.3Z"/>
      </g>
      <path class="cls-2" d="M11.66,31.87L6.21,9.62h4.32l2.11,10.1c.56,2.71,1.09,5.54,1.45,7.76h.07c.36-2.34.99-4.98,1.62-7.79l2.41-10.07h4.26l2.21,10.23c.56,2.64,1.02,5.12,1.35,7.53h.07c.4-2.44.92-4.98,1.52-7.69l2.31-10.07h4.13l-5.97,22.25h-4.36l-2.31-10.46c-.56-2.54-.96-4.65-1.22-7.06h-.07c-.4,2.38-.82,4.52-1.48,7.06l-2.58,10.46h-4.39Z"/>
      <rect class="cls-3" x="42.55" y="32.48" width="73.29" height="2.63"/>
    </g>
  </g>
</svg>