<?xml version="1.0" encoding="UTF-8"?>
<svg id="Layer_2" data-name="Layer 2" xmlns="http://www.w3.org/2000/svg" viewBox="0 0 42.13 42.13">
  <defs>
    <style>
      .cls-1 {
        fill: #1a1a1a;
      }

      .cls-1, .cls-2, .cls-3 {
        stroke-width: 0px;
      }

      .cls-2 {
        fill: #000;
      }

      .cls-3 {
        fill: #22c55e;
      }
    </style>
  </defs>
  <g id="Layer_1-2" data-name="Layer 1">
    <g>
      <rect class="cls-3" x="1.25" y="1.1" width="40.03" height="40.03" rx="4.52" ry="4.52"/>
      <path class="cls-1" d="M36.56,42.13H5.57c-3.07,0-5.57-2.5-5.57-5.57V5.57C0,2.5,2.5,0,5.57,0h31c3.07,0,5.57,2.5,5.57,5.57v31c0,3.07-2.5,5.57-5.57,5.57ZM5.57,2.1c-1.91,0-3.47,1.55-3.47,3.47v31c0,1.91,1.55,3.47,3.47,3.47h31c1.91,0,3.47-1.56,3.47-3.47V5.57c0-1.91-1.55-3.47-3.47-3.47H5.57Z"/>
      <path class="cls-2" d="M18.31,15.17c.28-.13.67-.26,1.19-.4.52-.14,1.04-.21,1.57-.21.93,0,1.71.14,2.33.42.62.28,1,.69,1.15,1.25.43,1.49.82,2.85,1.17,4.08s.7,2.43,1.04,3.57c.34,1.15.67,2.35,1,3.61h.15c.35-2.09.67-4.1.95-6.01.28-1.92.54-3.81.79-5.67.25-1.86.49-3.78.72-5.75.83-.45,1.69-.68,2.57-.68.83,0,1.54.18,2.12.53.58.35.87.95.87,1.78,0,.55-.06,1.33-.17,2.33-.11,1-.27,2.14-.47,3.42-.2,1.29-.43,2.62-.7,4.01s-.55,2.74-.85,4.07c-.3,1.32-.61,2.52-.91,3.59-.3,1.07-.59,1.93-.87,2.59-.33.28-.86.52-1.59.74-.73.21-1.5.32-2.31.32-1.01,0-1.88-.15-2.61-.43-.73-.29-1.17-.69-1.32-1.19-.25-.73-.54-1.59-.85-2.57-.31-.98-.64-2.06-.96-3.23s-.66-2.38-.98-3.61c-.28,1.21-.58,2.44-.91,3.69-.33,1.25-.64,2.41-.95,3.5-.3,1.08-.58,2.02-.83,2.8-.33.28-.83.52-1.49.74-.67.21-1.41.32-2.21.32-.96,0-1.84-.15-2.65-.45s-1.32-.69-1.55-1.17c-.25-.58-.55-1.46-.89-2.63-.34-1.17-.69-2.52-1.06-4.05-.37-1.52-.71-3.12-1.04-4.78-.33-1.66-.63-3.28-.91-4.86-.28-1.58-.49-2.99-.64-4.25.33-.28.76-.54,1.3-.79.54-.25,1.14-.38,1.8-.38.83,0,1.51.18,2.04.55s.87.99,1.02,1.87c.4,2.32.74,4.31,1,5.98.26,1.66.49,3.09.68,4.27.19,1.18.36,2.21.51,3.08.15.87.3,1.66.45,2.36h.19c.25-1.03.49-2,.72-2.89s.47-1.8.72-2.72c.25-.92.52-1.92.79-2.99.28-1.07.57-2.31.87-3.72Z"/>
    </g>
  </g>
</svg>